<?xml version="1.0" encoding="UTF-8" standalone="no"?>
<!-- Created with Inkscape (http://www.inkscape.org/) -->

<svg
   width="4.2333331mm"
   height="4.2333336mm"
   viewBox="0 0 4.2333331 4.2333336"
   version="1.1"
   id="svg1"
   xml:space="preserve"
   inkscape:version="1.3 (0e150ed6c4, 2023-07-21)"
   sodipodi:docname="paginas.svg"
   xmlns:inkscape="http://www.inkscape.org/namespaces/inkscape"
   xmlns:sodipodi="http://sodipodi.sourceforge.net/DTD/sodipodi-0.dtd"
   xmlns="http://www.w3.org/2000/svg"
   xmlns:svg="http://www.w3.org/2000/svg"><sodipodi:namedview
     id="namedview1"
     pagecolor="#ffffff"
     bordercolor="#000000"
     borderopacity="0.25"
     inkscape:showpageshadow="2"
     inkscape:pageopacity="0.0"
     inkscape:pagecheckerboard="0"
     inkscape:deskcolor="#d1d1d1"
     inkscape:document-units="mm"
     inkscape:zoom="2.0938813"
     inkscape:cx="528.68327"
     inkscape:cy="637.81076"
     inkscape:window-width="1920"
     inkscape:window-height="1027"
     inkscape:window-x="-8"
     inkscape:window-y="-8"
     inkscape:window-maximized="1"
     inkscape:current-layer="layer1" /><defs
     id="defs1" /><g
     inkscape:label="Capa 1"
     inkscape:groupmode="layer"
     id="layer1"
     transform="translate(-112.11959,-168.22354)"><g
       style="fill:#ffffff;stroke-width:0.996873"
       id="g2"
       transform="matrix(0.26541275,0,0,0.26541275,112.11296,168.2169)"
       inkscape:export-filename="..\..\assets\ampliar-16.png"
       inkscape:export-xdpi="96"
       inkscape:export-ydpi="96"><path
         fill-rule="evenodd"
         d="m 5.828,10.172 a 0.5,0.5 0 0 0 -0.707,0 L 1.025,14.268 V 11.5 a 0.5,0.5 0 0 0 -1,0 v 3.975 a 0.5,0.5 0 0 0 0.5,0.5 H 4.5 a 0.5,0.5 0 0 0 0,-1 H 1.732 l 4.096,-4.096 a 0.5,0.5 0 0 0 0,-0.707 z m 4.344,-4.344 a 0.5,0.5 0 0 0 0.707,0 L 14.975,1.732 V 4.5 a 0.5,0.5 0 1 0 1,0 V 0.525 a 0.5,0.5 0 0 0 -0.5,-0.5 H 11.5 a 0.5,0.5 0 0 0 0,1 h 2.768 l -4.096,4.096 a 0.5,0.5 0 0 0 0,0.707 z"
         id="path1-1"
         style="fill:#ffffff;stroke-width:0.996873" /></g></g></svg>
