<?xml version="1.0" encoding="UTF-8" standalone="no"?>
<!-- Created with Inkscape (http://www.inkscape.org/) -->

<svg
   width="8.4666662mm"
   height="8.4666672mm"
   viewBox="0 0 8.4666662 8.4666672"
   version="1.1"
   id="svg1"
   xml:space="preserve"
   inkscape:version="1.3 (0e150ed6c4, 2023-07-21)"
   sodipodi:docname="paginas.svg"
   xmlns:inkscape="http://www.inkscape.org/namespaces/inkscape"
   xmlns:sodipodi="http://sodipodi.sourceforge.net/DTD/sodipodi-0.dtd"
   xmlns="http://www.w3.org/2000/svg"
   xmlns:svg="http://www.w3.org/2000/svg"><sodipodi:namedview
     id="namedview1"
     pagecolor="#ffffff"
     bordercolor="#000000"
     borderopacity="0.25"
     inkscape:showpageshadow="2"
     inkscape:pageopacity="0.0"
     inkscape:pagecheckerboard="0"
     inkscape:deskcolor="#d1d1d1"
     inkscape:document-units="mm"
     inkscape:zoom="0.74029882"
     inkscape:cx="397.13693"
     inkscape:cy="561.25984"
     inkscape:window-width="1920"
     inkscape:window-height="1027"
     inkscape:window-x="-8"
     inkscape:window-y="-8"
     inkscape:window-maximized="1"
     inkscape:current-layer="layer1" /><defs
     id="defs1" /><g
     inkscape:label="Capa 1"
     inkscape:groupmode="layer"
     id="layer1"
     transform="translate(-113.12387,-150.14741)"><g
       id="g8"><g
         style="fill:#ffffff;stroke-width:0.5"
         id="g4"
         transform="matrix(0.52916667,0,0,0.52916667,113.12387,150.14741)"><path
           d="M 8,15 A 7,7 0 1 1 8,1 7,7 0 0 1 8,15 Z m 0,1 A 8,8 0 1 0 8,0 8,8 0 0 0 8,16 Z"
           id="path1-5"
           style="fill:#ffffff;stroke-width:0.5" /></g><g
         style="fill:#ffffff"
         id="g7"
         transform="matrix(0.26458333,0,0,0.26458333,115.24054,152.26408)"><path
           d="m 9.405,1.05 c -0.413,-1.4 -2.397,-1.4 -2.81,0 l -0.1,0.34 A 1.464,1.464 0 0 1 4.39,2.262 L 4.08,2.092 C 2.797,1.394 1.394,2.797 2.093,4.079 L 2.262,4.39 C 2.708,5.21 2.285,6.231 1.39,6.495 l -0.34,0.1 c -1.4,0.413 -1.4,2.397 0,2.81 l 0.34,0.1 a 1.464,1.464 0 0 1 0.872,2.105 l -0.17,0.31 c -0.698,1.283 0.705,2.686 1.987,1.987 L 4.39,13.738 a 1.464,1.464 0 0 1 2.105,0.872 l 0.1,0.34 c 0.413,1.4 2.397,1.4 2.81,0 l 0.1,-0.34 a 1.464,1.464 0 0 1 2.105,-0.872 l 0.31,0.17 c 1.283,0.698 2.686,-0.705 1.987,-1.987 L 13.738,11.61 A 1.464,1.464 0 0 1 14.61,9.505 l 0.34,-0.1 c 1.4,-0.413 1.4,-2.397 0,-2.81 l -0.34,-0.1 A 1.464,1.464 0 0 1 13.738,4.39 l 0.17,-0.31 C 14.606,2.797 13.203,1.394 11.921,2.093 L 11.61,2.262 A 1.464,1.464 0 0 1 9.505,1.39 Z M 8,10.93 a 2.93,2.93 0 1 1 0,-5.86 2.929,2.929 0 0 1 0,5.858 z"
           id="path1-10"
           style="fill:#ffffff" /></g></g></g></svg>
